/* XPM */
static char *_09d13be9efd48e2a000d1485d5805f6[] = {
/* columns rows colors chars-per-pixel */
"64 64 3 1 ",
"  c #8F563B",
". c #D9A066",
"X c #EEC39A",
/* pixels */
"                                                                ",
"       ..    ...       ..    ..    ...      ..   ..     ...     ",
"    .....  ....................  ...................  .......   ",
"   ....XXX...................XXX..................XXX........   ",
"   ....XXX...................XXX.................XXXX.........  ",
"  ...............XX.....XX.............XX....XX...............  ",
"   ...............X......X..............X.....X...............  ",
"   .....X.....................X....................X.........   ",
"   ..........................................................   ",
"   .....XX....................XX...................XX........   ",
"   ....XXXX..................XXXX................XXXX.........  ",
"  ......................X....................X........X.......  ",
"  ...........XXXX..................XXXX......X..........XXX...  ",
"   ...........................................................  ",
"   ....XXXX.......X..........XXXX.......X.........X...........  ",
"   ...........X....X................X....X...............X....  ",
"   ...........................................................  ",
"   ...X.....................X....................X...........   ",
"   ....X.....................X...................XX..X.......   ",
"   .................................XX.......................   ",
"   ......................X..........XX.......................   ",
"   ..........................................................   ",
"   ..........................................................   ",
"   ..........................................................   ",
"   .......X..XX................X...X...................XX....   ",
"   ....................XX........................XXXX.........  ",
"  ...........................................X................  ",
"  ............................................X...............  ",
"  ...........X...........................................XX...  ",
"  ...XX...........X.......XXX..........XX....................   ",
"  ...XXX..........X.......XXX..........X.....................   ",
"  ................X..............................XXXX.........  ",
"  .........XXXX.................XXXX.........X................  ",
"   ..........................................X..........XXX...  ",
"   ..........................................X...........XX...  ",
"  ...XX....................XX.....................X...........  ",
"  ...............X............................................  ",
"  ................X...................X.......................  ",
"  .........XXXX..................XXX.........................   ",
"   ....XX....................X...........XX......XX..X.......   ",
"   ....................XX.................X..................   ",
"   ..........................................................   ",
"   ..........................................................   ",
"   ..........................................XX..............   ",
"   ................................XXX.......XXX.............   ",
"   .......X..XX..........XX....X...X....................X....   ",
"   ...........X....................XX....................X...   ",
"  ...........................................................   ",
"  ....X................X...XX...............X....X...........   ",
"  ...........X.........XX......XXXX..........X.......XXXX....   ",
"  ...........................................................   ",
"  ...XXX..........X.......XXX..........X.......XXXX...........  ",
"  .......X........X....................XX.....................  ",
"  .........XXXX.................XXXX.................XXXX....   ",
"   ........XX....................XX...................XX.....   ",
"   ..........................................................   ",
"   .........X....................XX....................X.....   ",
"  ...............X......X....................X...............   ",
"  ...............XX....XX..............XX....XX...............  ",
"  .........XXXX..................XXX..................XXX....   ",
"   ........XXX...................XX...................XXX....   ",
"   .......  ...................  ....................  .....    ",
"     ...     ..   ..       ..     ..   ..       ...    ..       ",
"                                                                "
};
