/* XPM */
static char * pikachu_down_xpm[] = {
"64 64 10 1",
" 	c #8F563B",
".	c #D9A066",
"+	c #EEC39A",
"@	c #000000",
"#	c #FFDE4A",
"$	c #836200",
"%	c #D5AC20",
"&	c #4A3131",
"*	c #FFFFFF",
"=	c #EE7341",
"                                                                ",
"       ..    ...       ..    ..    ...      ..   ..     ...     ",
"    .....  ....................  ...................  .......   ",
"   ....+++...................+++..................+++........   ",
"   ....+@@@@@@@@@@@@.........+++................@@@@@@@@@@@@..  ",
"  ......@@@@@@@@@@@@....++.............++....++.@@@@@@@@@@@@..  ",
"   .....@@@@@@@@@@@@.....+..............+.....+.@@@@@@@@@@@@..  ",
"   .....@@@@@@@@@@@@..........+.................@@@@@@@@@@@@.   ",
"   .....@@@@@@@@####$$$$$$$$%%%%%%%%%%%%$$$$$$$$####@@@@@@@@.   ",
"   .....@@@@@@@@####$$$$$$$$%%%%%%%%%%%%$$$$$$$$####@@@@@@@@.   ",
"   ....+@@@@@@@@####$$$$$$$$%%%%%%%%%%%%$$$$$$$$####@@@@@@@@..  ",
"  ......@@@@@@@@####$$$$$$$$%%%%%%%%%%%%$$$$$$$$####@@@@@@@@..  ",
"  ..........@@@@####################################@@@@+++...  ",
"   .........@@@@####################################@@@@......  ",
"   ....++++.@@@@####################################@@@@......  ",
"   .........@@@@####################################@@@@.+....  ",
"   .........&&&&$$$$############################$$$$&&&&......  ",
"   ...+.....&&&&$$$$############################$$$$&&&&.....   ",
"   ....+....&&&&$$$$############################$$$$&&&&.....   ",
"   .........&&&&$$$$############################$$$$&&&&.....   ",
"   .&&&&$$$$$$$$$$$$####****############****####$$$$.........   ",
"   .&&&&$$$$$$$$$$$$####****############****####$$$$.........   ",
"   .&&&&$$$$$$$$$$$$####****############****####$$$$.........   ",
"   .&&&&$$$$$$$$$$$$####****############****####$$$$.........   ",
"   .&&&&####&&&&========@@@@####@@@@####@@@@========&&&&+....   ",
"   .&&&&####&&&&========@@@@####@@@@####@@@@========&&&&......  ",
"  ..&&&&####&&&&========@@@@####@@@@####@@@@========&&&&......  ",
"  ..&&&&####&&&&========@@@@####@@@@####@@@@========&&&&......  ",
"  ..&&&&%%%%&&&&========####$$$$####$$$$####========&&&&.++...  ",
"  ..&&&&%%%%&&&&========####$$$$####$$$$####========&&&&.....   ",
"  ..&&&&%%%%&&&&========####$$$$####$$$$####========&&&&.....   ",
"  ..&&&&%%%%&&&&========####$$$$####$$$$####========&&&&......  ",
"  ..&&&&$$$$%%%%$$$$############################$$$$%%%%$$$$..  ",
"   .&&&&$$$$%%%%$$$$############################$$$$%%%%$$$$..  ",
"   .&&&&$$$$%%%%$$$$############################$$$$%%%%$$$$..  ",
"  ..&&&&$$$$%%%%$$$$############################$$$$%%%%$$$$..  ",
"  ..&&&&&&&&%%%%%%%%%%%%####################%%%%%%%%%%%%&&&&..  ",
"  ..&&&&&&&&%%%%%%%%%%%%####################%%%%%%%%%%%%&&&&..  ",
"  ..&&&&&&&&%%%%%%%%%%%%####################%%%%%%%%%%%%&&&&.   ",
"   .&&&&&&&&%%%%%%%%%%%%####################%%%%%%%%%%%%&&&&.   ",
"   .....&&&&%%%%%%%%$$$$####$$$$%%%%$$$$####$$$$%%%%%%%%&&&&.   ",
"   .....&&&&%%%%%%%%$$$$####$$$$%%%%$$$$####$$$$%%%%%%%%&&&&.   ",
"   .....&&&&%%%%%%%%$$$$####$$$$%%%%$$$$####$$$$%%%%%%%%&&&&.   ",
"   .....&&&&%%%%%%%%$$$$####$$$$%%%%$$$$####$$$$%%%%%%%%&&&&.   ",
"   .....&&&&$$$$%%%%%%%%$$$$$$$$%%%%$$$$$$$$%%%%%%%%$$$$&&&&.   ",
"   .....&&&&$$$$%%%%%%%%$$$$$$$$%%%%$$$$$$$$%%%%%%%%$$$$&&&&.   ",
"   .....&&&&$$$$%%%%%%%%$$$$$$$$%%%%$$$$$$$$%%%%%%%%$$$$&&&&.   ",
"  ......&&&&$$$$%%%%%%%%$$$$$$$$%%%%$$$$$$$$%%%%%%%%$$$$&&&&.   ",
"  ....+.....@@@@$$$$$$$$%%%%%%%%%%%%%%%%%%%%$$$$$$$$@@@@.....   ",
"  ..........@@@@$$$$$$$$%%%%%%%%%%%%%%%%%%%%$$$$$$$$@@@@+....   ",
"  ..........@@@@$$$$$$$$%%%%%%%%%%%%%%%%%%%%$$$$$$$$@@@@.....   ",
"  ...+++....@@@@$$$$$$$$%%%%%%%%%%%%%%%%%%%%$$$$$$$$@@@@......  ",
"  .......+..@@@@%%%%%%%%$$$$$$$$$$$$$$$$$$$$%%%%%%%%@@@@......  ",
"  .........+@@@@%%%%%%%%$$$$$$$$$$$$$$$$$$$$%%%%%%%%@@@@+....   ",
"   ........+@@@@%%%%%%%%$$$$$$$$$$$$$$$$$$$$%%%%%%%%@@@@.....   ",
"   .........@@@@%%%%%%%%$$$$$$$$$$$$$$$$$$$$%%%%%%%%@@@@.....   ",
"   .........+...@@@@@@@@.........++.........@@@@@@@@...+.....   ",
"  ..............@@@@@@@@+...................@@@@@@@@.........   ",
"  ..............@@@@@@@@+..............++...@@@@@@@@..........  ",
"  .........++++.@@@@@@@@.........+++........@@@@@@@@..+++....   ",
"   ........+++...................++...................+++....   ",
"   .......  ...................  ....................  .....    ",
"     ...     ..   ..       ..     ..   ..       ...    ..       ",
"                                                                "};
