/* XPM */
static char * pikachu_right_xpm[] = {
"64 64 10 1",
" 	c #8F563B",
".	c #D9A066",
"+	c #EEC39A",
"@	c #000000",
"#	c #4A3131",
"$	c #836200",
"%	c #FFDE4A",
"&	c #D5AC20",
"*	c #FFFFFF",
"=	c #EE7341",
"                                                                ",
"       ..    ...       ..    ..    ...      ..   ..     ...     ",
"    .....  ....................  ...................  .......   ",
"   ....+++...................+++..................+++........   ",
"   ....+++...................+++.................++++.........  ",
"  ..........@@@@@@@@@@@@####$$$$$$$$...++....++...............  ",
"   .........@@@@@@@@@@@@####$$$$$$$$....+.....+...............  ",
"   .....+...@@@@@@@@@@@@####$$$$$$$$...............+.........   ",
"   .........@@@@@@@@@@@@####$$$$$$$$.........................   ",
"   .....++......@@@@@@@@@@@@%%%%%%%%$$$$$$$$$$$$...++........   ",
"   ....++++.....@@@@@@@@@@@@%%%%%%%%$$$$$$$$$$$$.++++.........  ",
"  ..............@@@@@@@@@@@@%%%%%%%%$$$$$$$$$$$$......+.......  ",
"  ...........+++@@@@@@@@@@@@%%%%%%%%$$$$$$$$$$$$........+++...  ",
"   .................@@@@&&&&%%%%%%%%%%%%%%%%%%%%$$$$$$$$......  ",
"   ....++++.......+.@@@@&&&&%%%%%%%%%%%%%%%%%%%%$$$$$$$$......  ",
"   ...........+....+@@@@&&&&%%%%%%%%%%%%%%%%%%%%$$$$$$$$.+....  ",
"   .................@@@@&&&&%%%%%%%%%%%%%%%%%%%%$$$$$$$$......  ",
"   ...+.............####$$$$$$$$%%%%%%%%%%%%%%%%%%%%&&&&$$$$.   ",
"   ....+............####$$$$$$$$%%%%%%%%%%%%%%%%%%%%&&&&$$$$.   ",
"   .................####$$$$$$$$%%%%%%%%%%%%%%%%%%%%&&&&$$$$.   ",
"   .................####$$$$$$$$%%%%%%%%%%%%%%%%%%%%&&&&$$$$.   ",
"$$$$$$$$$$$$$$$$....####&&&&%%%%%%%%%%%%%%%%%%%%****%%%%$$$$.   ",
"$$$$$$$$$$$$$$$$....####&&&&%%%%%%%%%%%%%%%%%%%%****%%%%$$$$.   ",
"$$$$$$$$$$$$$$$$....####&&&&%%%%%%%%%%%%%%%%%%%%****%%%%$$$$.   ",
"$$$$$$$$$$$$$$$$....####&&&&%%%%%%%%%%%%%%%%%%%%****%%%%$$$$.   ",
"####%%%%%%%%$$$$####&&&&&&&&%%%%%%%%%%%%========@@@@%%%%%%%%@@@@",
"####%%%%%%%%$$$$####&&&&&&&&%%%%%%%%%%%%========@@@@%%%%%%%%@@@@",
"####%%%%%%%%$$$$####&&&&&&&&%%%%%%%%%%%%========@@@@%%%%%%%%@@@@",
"####%%%%%%%%$$$$####&&&&&&&&%%%%%%%%%%%%========@@@@%%%%%%%%@@@@",
"####&&&&&&&&########$$$$&&&&&&&&%%%%%%%%========%%%%%%%%%%%%####",
"####&&&&&&&&########$$$$&&&&&&&&%%%%%%%%========%%%%%%%%%%%%####",
"####&&&&&&&&########$$$$&&&&&&&&%%%%%%%%========%%%%%%%%%%%%####",
"####&&&&&&&&########$$$$&&&&&&&&%%%%%%%%========%%%%%%%%%%%%####",
"####&&&&&&&&####&&&&$$$$$$$$&&&&&&&&%%%%%%%%%%%%%%%%%%%%####..  ",
"####&&&&&&&&####&&&&$$$$$$$$&&&&&&&&%%%%%%%%%%%%%%%%%%%%####..  ",
"####&&&&&&&&####&&&&$$$$$$$$&&&&&&&&%%%%%%%%%%%%%%%%%%%%####..  ",
"####&&&&&&&&####&&&&$$$$$$$$&&&&&&&&%%%%%%%%%%%%%%%%%%%%####..  ",
"########&&&&####$$$$&&&&&&&&&&&&&&&&&&&&&&&&$$$$########......  ",
"########&&&&####$$$$&&&&&&&&&&&&&&&&&&&&&&&&$$$$########.....   ",
"########&&&&####$$$$&&&&&&&&&&&&&&&&&&&&&&&&$$$$########.....   ",
"########&&&&####$$$$&&&&&&&&&&&&&&&&&&&&&&&&$$$$########.....   ",
"   .####&&&&####$$$$$$$$&&&&&&&&&&&&&&&&%%%%%%%%%%%%####.....   ",
"   .####&&&&####$$$$$$$$&&&&&&&&&&&&&&&&%%%%%%%%%%%%####.....   ",
"   .####&&&&####$$$$$$$$&&&&&&&&&&&&&&&&%%%%%%%%%%%%####.....   ",
"   .####&&&&####$$$$$$$$&&&&&&&&&&&&&&&&%%%%%%%%%%%%####.....   ",
"   .####$$$$@@@@####&&&&&&&&&&&&&&&&&&&&&&&&########....+....   ",
"   .####$$$$@@@@####&&&&&&&&&&&&&&&&&&&&&&&&########.....+...   ",
"  ..####$$$$@@@@####&&&&&&&&&&&&&&&&&&&&&&&&########.........   ",
"  ..####$$$$@@@@####&&&&&&&&&&&&&&&&&&&&&&&&########.........   ",
"  ......####$$$$@@@@&&&&&&&&&&&&&&&&$$$$####.+.......++++....   ",
"  ......####$$$$@@@@&&&&&&&&&&&&&&&&$$$$####.................   ",
"  ...+++####$$$$@@@@&&&&&&&&&&&&&&&&$$$$####...++++...........  ",
"  ......####$$$$@@@@&&&&&&&&&&&&&&&&$$$$####..................  ",
"  ......####@@@@@@@@@@@@$$$$&&&&&&&&&&&&####.........++++....   ",
"   .....####@@@@@@@@@@@@$$$$&&&&&&&&&&&&####..........++.....   ",
"   .....####@@@@@@@@@@@@$$$$&&&&&&&&&&&&####.................   ",
"   .....####@@@@@@@@@@@@$$$$&&&&&&&&&&&&####...........+.....   ",
"  ...............+......@@@@@@@@@@@@@@@@.....+...............   ",
"  ...............++....+@@@@@@@@@@@@@@@@+....++...............  ",
"  .........++++.........@@@@@@@@@@@@@@@@..............+++....   ",
"   ........+++..........@@@@@@@@@@@@@@@@..............+++....   ",
"   .......  ...................  ....................  .....    ",
"     ...     ..   ..       ..     ..   ..       ...    ..       ",
"                                                                "};
