/* XPM */
static char * coin_xpm[] = {
"64 64 652 2",
"  	c #8F563B",
". 	c #D9A066",
"+ 	c #EEC39A",
"@ 	c #000200",
"# 	c #010100",
"$ 	c #030000",
"% 	c #040000",
"& 	c #070000",
"* 	c #080000",
"= 	c #060000",
"- 	c #060100",
"; 	c #CFA47F",
"> 	c #CDA680",
", 	c #CFA486",
"' 	c #4B2B14",
") 	c #502400",
"! 	c #582303",
"~ 	c #562306",
"{ 	c #4F2800",
"] 	c #4C2901",
"^ 	c #512606",
"/ 	c #52240A",
"( 	c #552406",
"_ 	c #522603",
": 	c #4D2B0F",
"< 	c #CFA683",
"[ 	c #CCA68A",
"} 	c #CCA587",
"| 	c #CEA887",
"1 	c #0E0000",
"2 	c #1F0000",
"3 	c #D4915A",
"4 	c #EE9537",
"5 	c #F68D3C",
"6 	c #F78C3C",
"7 	c #F39130",
"8 	c #F29130",
"9 	c #FA8D2E",
"0 	c #FA8C33",
"a 	c #F98D32",
"b 	c #F29132",
"c 	c #E69A4F",
"d 	c #2B0000",
"e 	c #190000",
"f 	c #0B0000",
"g 	c #110200",
"h 	c #110E07",
"i 	c #D79460",
"j 	c #D4985A",
"k 	c #E29964",
"l 	c #E69343",
"m 	c #EE902C",
"n 	c #F78F3A",
"o 	c #F88D3B",
"p 	c #F79033",
"q 	c #F59034",
"r 	c #F3913A",
"s 	c #F59036",
"t 	c #F89031",
"u 	c #F7912F",
"v 	c #F0923A",
"w 	c #E19051",
"x 	c #E19C73",
"y 	c #B06A50",
"z 	c #AE6A61",
"A 	c #010006",
"B 	c #0C0A00",
"C 	c #F8963B",
"D 	c #E89132",
"E 	c #EC932F",
"F 	c #F1912B",
"G 	c #F6932D",
"H 	c #F88F34",
"I 	c #F48D31",
"J 	c #F59038",
"K 	c #F58E41",
"L 	c #F78F38",
"M 	c #F88E36",
"N 	c #FA8D38",
"O 	c #FF9037",
"P 	c #FF8F39",
"Q 	c #FC863E",
"R 	c #D25622",
"S 	c #BC5834",
"T 	c #0A0300",
"U 	c #070500",
"V 	c #C9A084",
"W 	c #DF9A59",
"X 	c #FFC744",
"Y 	c #FFC243",
"Z 	c #FFBC43",
"` 	c #F39B2F",
" .	c #FE913E",
"..	c #FA8D3B",
"+.	c #F68F33",
"@.	c #FE8C33",
"#.	c #FB8E2F",
"$.	c #F79034",
"%.	c #F48F3D",
"&.	c #F5913B",
"*.	c #F79238",
"=.	c #FF9446",
"-.	c #F68541",
";.	c #FA8F4B",
">.	c #B26B57",
",.	c #130100",
"'.	c #000302",
").	c #0F0000",
"!.	c #DC9756",
"~.	c #DC9730",
"{.	c #EAD059",
"].	c #ECCC55",
"^.	c #F6C55E",
"/.	c #DE9A2D",
"(.	c #EF992C",
"_.	c #F38E36",
":.	c #F98E3E",
"<.	c #F98F3B",
"[.	c #F98F39",
"}.	c #F49136",
"|.	c #F39234",
"1.	c #F39033",
"2.	c #F68E37",
"3.	c #F78D37",
"4.	c #FF8D40",
"5.	c #DC5C43",
"6.	c #380000",
"7.	c #170000",
"8.	c #DA9864",
"9.	c #FFC946",
"0.	c #E3CD56",
"a.	c #FEFFF3",
"b.	c #FBFFFB",
"c.	c #FFFEF1",
"d.	c #E1CE72",
"e.	c #F7CE3E",
"f.	c #E49C23",
"g.	c #F29430",
"h.	c #F99331",
"i.	c #F58D36",
"j.	c #F49038",
"k.	c #F58F3D",
"l.	c #F58F3B",
"m.	c #F79031",
"n.	c #F88F33",
"o.	c #F88E38",
"p.	c #F48C35",
"q.	c #F38F31",
"r.	c #F89142",
"s.	c #D85737",
"t.	c #DA5838",
"u.	c #D35A3B",
"v.	c #2A0000",
"w.	c #00000B",
"x.	c #100000",
"y.	c #CE985A",
"z.	c #EE9336",
"A.	c #FFC749",
"B.	c #E8D056",
"C.	c #FDFEF8",
"D.	c #FFFEF3",
"E.	c #E3D071",
"F.	c #FCCE3B",
"G.	c #EB942A",
"H.	c #F8903B",
"I.	c #F5912F",
"J.	c #F49335",
"K.	c #F78F36",
"L.	c #F59133",
"M.	c #FA8C3F",
"N.	c #DD5636",
"O.	c #D85930",
"P.	c #D05A3C",
"Q.	c #260000",
"R.	c #000000",
"S.	c #200000",
"T.	c #DA985E",
"U.	c #EF962E",
"V.	c #FFC144",
"W.	c #F4CA5A",
"X.	c #FFFFEC",
"Y.	c #FFFDE6",
"Z.	c #EACE6D",
"`.	c #FFC83D",
" +	c #F39B2D",
".+	c #F68C36",
"++	c #F58E3F",
"@+	c #FB8C3D",
"#+	c #DA5836",
"$+	c #D95733",
"%+	c #D2593A",
"&+	c #300000",
"*+	c #120000",
"=+	c #000100",
"-+	c #260F00",
";+	c #E39B6B",
">+	c #EF9C50",
",+	c #F19434",
"'+	c #F89B34",
")+	c #DD9A2F",
"!+	c #E2CE75",
"~+	c #E4D172",
"{+	c #E9CD6C",
"]+	c #CDA02D",
"^+	c #DF9A21",
"/+	c #F19031",
"(+	c #FB8E3B",
"_+	c #F48A34",
":+	c #F88E3A",
"<+	c #FE8A3F",
"[+	c #D65A38",
"}+	c #DB5635",
"|+	c #D55838",
"1+	c #B3583D",
"2+	c #A46A5E",
"3+	c #090100",
"4+	c #2E0C00",
"5+	c #F4943E",
"6+	c #F29335",
"7+	c #F49537",
"8+	c #F68C34",
"9+	c #ED972A",
"0+	c #F3CC40",
"a+	c #FBCD3A",
"b+	c #FDC53A",
"c+	c #DE9920",
"d+	c #ED9533",
"e+	c #F78A37",
"f+	c #F78D35",
"g+	c #F38E32",
"h+	c #F58F3A",
"i+	c #FA8B43",
"j+	c #FE8944",
"k+	c #D55B36",
"l+	c #DC5537",
"m+	c #CC5734",
"n+	c #B9614D",
"o+	c #0D0000",
"p+	c #340800",
"q+	c #FA8C37",
"r+	c #F89135",
"s+	c #F19032",
"t+	c #FB8D36",
"u+	c #F4902E",
"v+	c #E7A127",
"w+	c #FA923D",
"x+	c #F7923A",
"y+	c #F99034",
"z+	c #F6883B",
"A+	c #D26024",
"B+	c #D35A21",
"C+	c #D25632",
"D+	c #DE593A",
"E+	c #D75734",
"F+	c #DC5631",
"G+	c #C75D47",
"H+	c #050001",
"I+	c #340600",
"J+	c #F98C3A",
"K+	c #F69139",
"L+	c #F48E3C",
"M+	c #F98A39",
"N+	c #F69137",
"O+	c #FB933E",
"P+	c #FD903D",
"Q+	c #FB8C45",
"R+	c #D45D32",
"S+	c #D95B32",
"T+	c #D95735",
"U+	c #D85634",
"V+	c #D95A37",
"W+	c #DF5530",
"X+	c #CA5B47",
"Y+	c #020001",
"Z+	c #060002",
"`+	c #310800",
" @	c #F29434",
".@	c #FA8E45",
"+@	c #FA903C",
"@@	c #F49334",
"#@	c #FD8F38",
"$@	c #F69230",
"%@	c #FA903A",
"&@	c #FA9135",
"*@	c #FC8B49",
"=@	c #D55C3D",
"-@	c #DA5A3D",
";@	c #DF5636",
">@	c #D85A34",
",@	c #D35735",
"'@	c #DE5531",
")@	c #C75C48",
"!@	c #000201",
"~@	c #2F0A00",
"{@	c #EB923E",
"]@	c #EF9437",
"^@	c #F78E3B",
"/@	c #F69433",
"(@	c #F49430",
"_@	c #FA893B",
":@	c #F59237",
"<@	c #F6903C",
"[@	c #F48F35",
"}@	c #F39138",
"|@	c #FF8A54",
"1@	c #D3573F",
"2@	c #D55842",
"3@	c #DF583A",
"4@	c #D75931",
"5@	c #D45937",
"6@	c #D75837",
"7@	c #BD604F",
"8@	c #040402",
"9@	c #2F0803",
"0@	c #9A4C38",
"a@	c #EC8D57",
"b@	c #F1913B",
"c@	c #EC8B2C",
"d@	c #F58B37",
"e@	c #FD8C40",
"f@	c #FF9542",
"g@	c #EA902F",
"h@	c #F08B39",
"i@	c #F28945",
"j@	c #E98F39",
"k@	c #F9953F",
"l@	c #F78735",
"m@	c #F6903B",
"n@	c #F58B35",
"o@	c #F88C34",
"p@	c #F78D3F",
"q@	c #CF5E24",
"r@	c #D35836",
"s@	c #D5543F",
"t@	c #CF563B",
"u@	c #D25535",
"v@	c #D95936",
"w@	c #D45C3A",
"x@	c #A3432B",
"y@	c #854B3F",
"z@	c #000105",
"A@	c #030005",
"B@	c #2A1114",
"C@	c #865245",
"D@	c #D98A63",
"E@	c #F18E4A",
"F@	c #FC9036",
"G@	c #FC8F32",
"H@	c #FA8E33",
"I@	c #E98C3C",
"J@	c #CA9A5C",
"K@	c #D3985C",
"L@	c #D58D5B",
"M@	c #CC9A5D",
"N@	c #D69457",
"O@	c #FB8D34",
"P@	c #FD8D3B",
"Q@	c #FF9243",
"R@	c #FB8C44",
"S@	c #FA8945",
"T@	c #FA8246",
"U@	c #DD5F2F",
"V@	c #D85632",
"W@	c #DA5534",
"X@	c #D85328",
"Y@	c #D45737",
"Z@	c #C7634B",
"`@	c #975644",
" #	c #795851",
".#	c #0A0000",
"+#	c #000500",
"@#	c #060A0B",
"##	c #5B4F51",
"$#	c #7D504A",
"%#	c #96492F",
"&#	c #E98E59",
"*#	c #E99245",
"=#	c #E79541",
"-#	c #D99860",
";#	c #484A45",
">#	c #525952",
",#	c #534E54",
"'#	c #425050",
")#	c #574A42",
"!#	c #D89453",
"~#	c #EB8940",
"{#	c #FF9554",
"]#	c #D05C2B",
"^#	c #DB5937",
"/#	c #DE5336",
"(#	c #DC5639",
"_#	c #D55E3E",
":#	c #CA5E3A",
"<#	c #C95735",
"[#	c #CE5E48",
"}#	c #A74739",
"|#	c #864A40",
"1#	c #634C44",
"2#	c #4B4E47",
"3#	c #000403",
"4#	c #000303",
"5#	c #040002",
"6#	c #0B0E13",
"7#	c #4A4F53",
"8#	c #534D4D",
"9#	c #5C433E",
"0#	c #6C4D39",
"a#	c #5F4628",
"b#	c #604927",
"c#	c #654836",
"d#	c #8F97AC",
"e#	c #FBFFFF",
"f#	c #FFF7F8",
"g#	c #95949C",
"h#	c #969198",
"i#	c #66472A",
"j#	c #7F3D1B",
"k#	c #D25D27",
"l#	c #D55D2B",
"m#	c #DB5A30",
"n#	c #E15532",
"o#	c #E05538",
"p#	c #B34127",
"q#	c #91452B",
"r#	c #71432B",
"s#	c #6A4437",
"t#	c #68433B",
"u#	c #614341",
"v#	c #594B4B",
"w#	c #4A4A4A",
"x#	c #494F4F",
"y#	c #000103",
"z#	c #010000",
"A#	c #474F52",
"B#	c #495154",
"C#	c #4D5255",
"D#	c #4B4F50",
"E#	c #474F51",
"F#	c #44505C",
"G#	c #8A94AD",
"H#	c #F9FFFF",
"I#	c #FEFDFB",
"J#	c #97949F",
"K#	c #929AA5",
"L#	c #435058",
"M#	c #60474A",
"N#	c #CE5C42",
"O#	c #CB5E3D",
"P#	c #CB5F38",
"Q#	c #CB6036",
"R#	c #C4623D",
"S#	c #944E35",
"T#	c #775549",
"U#	c #4E4943",
"V#	c #484E4C",
"W#	c #444D4A",
"X#	c #45504A",
"Y#	c #4D5351",
"Z#	c #4E504F",
"`#	c #4D4D4F",
" $	c #020305",
".$	c #000304",
"+$	c #000002",
"@$	c #72757A",
"#$	c #737A80",
"$$	c #4A5255",
"%$	c #45464A",
"&$	c #494949",
"*$	c #484E4A",
"=$	c #FFFCFF",
"-$	c #F9FDFF",
";$	c #F5FFFF",
">$	c #FBFEFF",
",$	c #FCFFFF",
"'$	c #4B5556",
")$	c #4F4A46",
"!$	c #704232",
"~$	c #6D4335",
"{$	c #6A4439",
"]$	c #6A443B",
"^$	c #6A4741",
"/$	c #5E4443",
"($	c #594D51",
"_$	c #4F4E53",
":$	c #4A504E",
"<$	c #4D5651",
"[$	c #6E7772",
"}$	c #7D7F7C",
"|$	c #050402",
"1$	c #D9A167",
"2$	c #0C0203",
"3$	c #7A7474",
"4$	c #78797B",
"5$	c #444E50",
"6$	c #4C5456",
"7$	c #4C5250",
"8$	c #FFFEFF",
"9$	c #FEFFFF",
"0$	c #FEFDFF",
"a$	c #4B514F",
"b$	c #475653",
"c$	c #46534A",
"d$	c #475152",
"e$	c #484F59",
"f$	c #4A4E5A",
"g$	c #4C5059",
"h$	c #4C4F54",
"i$	c #46454B",
"j$	c #505155",
"k$	c #3F474A",
"l$	c #4D5057",
"m$	c #76747F",
"n$	c #7A7883",
"o$	c #000008",
"p$	c #010004",
"q$	c #030007",
"r$	c #CFC8D8",
"s$	c #CFCADE",
"t$	c #FFFDFF",
"u$	c #F9FCFF",
"v$	c #787E7E",
"w$	c #787F89",
"x$	c #9698AD",
"y$	c #FDFAFF",
"z$	c #8E9295",
"A$	c #8E8CA1",
"B$	c #515459",
"C$	c #48555E",
"D$	c #465157",
"E$	c #4A4F55",
"F$	c #4D4E52",
"G$	c #4B504C",
"H$	c #485249",
"I$	c #444F47",
"J$	c #47504D",
"K$	c #777A81",
"L$	c #777487",
"M$	c #CEC4DD",
"N$	c #A399B4",
"O$	c #A19FB5",
"P$	c #000111",
"Q$	c #000207",
"R$	c #08060B",
"S$	c #CECBD6",
"T$	c #C8C5D0",
"U$	c #76737C",
"V$	c #7A7782",
"W$	c #9C9AA5",
"X$	c #F7F6FE",
"Y$	c #9A9BA0",
"Z$	c #92929A",
"`$	c #4B4B55",
" %	c #494953",
".%	c #4E4D55",
"+%	c #4E4D53",
"@%	c #4C4B53",
"#%	c #4B4A52",
"$%	c #515058",
"%%	c #7A7885",
"&%	c #7F7B94",
"*%	c #CBC7DE",
"=%	c #A19EB3",
"-%	c #A4A1B2",
";%	c #000009",
">%	c #000004",
",%	c #050209",
"'%	c #010007",
")%	c #CCC9D4",
"!%	c #CDCAD5",
"~%	c #817F8A",
"{%	c #797681",
"]%	c #807A86",
"^%	c #7D7584",
"/%	c #D3CADB",
"(%	c #D7CEE1",
"_%	c #D3C7DD",
":%	c #D3C7DF",
"<%	c #D1C7DF",
"[%	c #D1C7E0",
"}%	c #D0C6E1",
"|%	c #CEC5E2",
"1%	c #D4CBE8",
"2%	c #C3BFD6",
"3%	c #AAA7BC",
"4%	c #00000E",
"5%	c #05020B",
"6%	c #01000B",
"7%	c #A4A0AF",
"8%	c #9E9EAA",
"9%	c #CFCDDB",
"0%	c #D2CEDD",
"a%	c #D3CCDE",
"b%	c #D7C9E0",
"c%	c #D4C6E0",
"d%	c #D9C9E4",
"e%	c #D6C6E0",
"f%	c #D5C7E1",
"g%	c #D5C6E3",
"h%	c #D5C8E6",
"i%	c #AC9EBF",
"j%	c #A59ABA",
"k%	c #A99EBC",
"l%	c #9F9CB1",
"m%	c #00000C",
"n%	c #010005",
"o%	c #060210",
"p%	c #A39FB0",
"q%	c #A7A3B4",
"r%	c #D0CCDD",
"s%	c #D0CBDF",
"t%	c #D5CDE5",
"u%	c #CFC6E1",
"v%	c #D3CAE7",
"w%	c #D0C5E5",
"x%	c #D2C7E7",
"y%	c #D4C7E5",
"z%	c #D2C7E5",
"A%	c #D2C9E6",
"B%	c #A49BB6",
"C%	c #A7A2B9",
"D%	c #A29DB3",
"E%	c #05000E",
"F%	c #030010",
"G%	c #9C97AD",
"H%	c #A19DB4",
"I%	c #A19FB7",
"J%	c #9F9FB9",
"K%	c #9F9FBB",
"L%	c #9F9EBD",
"M%	c #A19DBE",
"N%	c #A19EBD",
"O%	c #A0A0BA",
"P%	c #010216",
"Q%	c #01000E",
"R%	c #04020D",
"S%	c #010009",
"T%	c #A3A1AF",
"U%	c #9D9CAC",
"V%	c #9E9FB1",
"W%	c #9DA0B3",
"X%	c #9BA0B3",
"Y%	c #9DA0AF",
"Z%	c #9DA1AD",
"`%	c #A5A9B2",
" &	c #000005",
".&	c #050908",
"+&	c #030706",
"@&	c #020204",
"#&	c #000007",
"$&	c #010300",
"%&	c #010101",
"&&	c #030009",
"                                                                                                                                ",
"              . .         . . .               . .         . .         . . .             . .       . .           . . .           ",
"        . . . . .     . . . . . . . . . . . . . . . . . . . .     . . . . . . . . . . . . . . . . . . .     . . . . . . .       ",
"      . . . . + + + . . . . . . . . . . . . . . . . . . . + + + . . . . . . . . . . . . . . . . . . + + + . . . . . . . .       ",
"      . . . . + + + . . . . . . . . . . . . . . . . . . . + + + . . . . . . . . . . . . . . . . . + + + + . . . . . . . . .     ",
"    . . . . . . . . . . . . . . . + + . . . . . + + . . . . . . . . . . . . . + + . . . . + + . . . . . . . . . . . . . . .     ",
"      . . . . . . . . . . . . . . . + . . . . . . + . . . . . . . . . . . . . . + . . . . . + . . . . . . . . . . . . . . .     ",
"      . . . . . + . . . . . . . . . . . . . . . . . . . . . + . . . . . . . . . . . . . . . . . . . . + . . . . . . . . .       ",
"      . . . . . . . . . . . . . . . . . . . . . . . . . . . . . . . . . . . . . . . . . . . . . . . . . . . . . . . . . .       ",
"      . . . . . + + . . . . . . . . . . . . . . . . . . . . + + . . . . . . . . . . . . . . . . . . . + + . . . . . . . .       ",
"      . . . . + + + + . . . . . . . . . . . . . . . . . . + + + + . . . . . . . . . . . . . . . . + + + + . . . . . . . . .     ",
"    . . . . . . . . . . . . . . . . . . . . . . + . . . . . . . . . . . . . . . . . . . . + . . . . . . . . + . . . . . . .     ",
"    . . . . . . . . . . . + + + + . . . . . . . . . . . . . . . . . . + + + + . . . . . . + . . . . . . . . . . + + + . . .     ",
"      . . . . . . . . . . . . . . . . . . . . . . . . . . . . . . . . . . . . . . . . . . . . . . . . . . . . . . . . . . .     ",
"      . . . . + + + + . . . . . . . + . . . . . . . . . . + + + + . . . . . . . + . . . . . . . . . + . . . . . . . . . . .     ",
"      . . . . . . . . . . . + . . . . + . . . . . . . . . . . . . . . . + . . . . + . . . . . . . . . . . . . . . + . . . .     ",
"      . . . . . . . . . . . . . . . . . . . . . . . @ # $ % & * & & & = - . . . . . . . . . . . . . . . . . . . . . . . . .     ",
"      . . . + . . . . . . . . . . . . . . . . ; > , ' ) ! ~ { ] ^ / ( _ : < [ } | . . . . . . . . + . . . . . . . . . . .       ",
"      . . . . + . . . . . . . . . . . . . . . * 1 2 3 4 5 6 7 8 9 0 a b c d e f g . . . . . . . . + + . . + . . . . . . .       ",
"      . . . . . . . . . . . . . . . . . . h 1 i j k l m n o p q r s t u v w x y z A . . . . . . . . . . . . . . . . . . .       ",
"      . . . . . . . . . . . . . . . . . . B 2 C D E F G t H I J K L M N O P Q R S T . . . . . . . . . . . . . . . . . . .       ",
"      . . . . . . . . . . . . . . . . h U V W X Y Z ` q  ...L +.@.#.$.%.&.*.=.-.;.>.,.'.. . . . . . . . . . . . . . . . .       ",
"      . . . . . . . . . . . . . . . . ).2 !.~.{.].^./.(._.:.<.[.p s }.|.b 1.2.3.4.5.6.7.. . . . . . . . . . . . . . . . .       ",
"      . . . . . . . . . . . . . . . * 8.C 9.0.a.b.c.d.e.f.g.h.i.j.k.l.m.n.o.p.q.r.s.t.u.v.w.. . . . . . . . . . . . . . .       ",
"      . . . . . . . + . . + + . . . x.y.z.A.B.C.a.D.E.F.G.H.I.J.q K.K.K.L n s L.M.N.O.P.Q.R.. . . . . . . . . + + . . . .       ",
"      . . . . . . . . . . . . . . . S.T.U.V.W.X.D.Y.Z.`. +.+3.++K.K.K.K.L L s $.@+#+$+%+&+*+. . . + + + + . . . . . . . . .     ",
"    . . . . . . . . . . . . . . =+-+;+>+,+'+)+!+~+{+]+^+/+(+_+H.n K.K.L L K.n :+<+[+}+|+1+2+3+= . . . . . . . . . . . . . .     ",
"    . . . . . . . . . . . . . . =+4+5+6+7+8+9+0+a+b+c+d+H.e+f+g+n K.K.h+L $.o i+j+k+l+s.m+n+o+= . . . . . . . . . . . . . .     ",
"    . . . . . . . . . . . + . . # p+q+r+s+t+u+v+G. +b w+o.o.h+J o $.s l.x+y+z+A+B+C+D+E+F+G+1 H+. . . . . . . . . + + . . .     ",
"    . . . + + . . . . . . . . . % I+J+K+L+M+N+|.O+o.P+J+o.L J h+o m.q k.K+n.Q+R+S+T+U+V+W+X+1 Y+. . . . . . . . . . . . .       ",
"    . . . + + + . . . . . . . . Z+`+7  @.@+@@@#@$@%@3.M h+J K.:+:+u q k.J &@*@=@-@;@>@,@'@)@1 !@. . . . . . . . . . . . .       ",
"    . . . . . . . . . . . . . . % ~@{@]@^@/@(@_@:@<@n [@}@J o.o n m.p l.h++@|@1@2@3@4@5@6@7@1 !@. + + + + . . . . . . . . .     ",
"    . . . . . . . . . + + + + . 8@9@0@a@b@c@d@e@f@g@h@i@j@k@l@K.m@n@o@M p@q@r@s@t@u@v@w@x@y@).z@. . . . . . . . . . . . . .     ",
"      . . . . . . . . . . . . . A@B@C@D@E@F@G@H@I@J@K@L@M@N@j.O@P@Q@R@S@T@U@V@W@X@F+Y@Z@`@ #.#A@. . . . . . . . + + + . . .     ",
"      . . . . . . . . . . . . . +#@###$#%#&#*#=#-#;#>#,#'#)#!#~#p@{#]#^#/#(#_#:#<#[#}#|#1#2#3#4#. . . . . . . . . + + . . .     ",
"    . . . + + . . . . . . . . . 5#6#7#8#9#0#a#b#c#d#e#f#g#h#i#j#k#l#m#n#o#p#q#r#s#t#u#v#w#x#y#Y+. . + . . . . . . . . . . .     ",
"    . . . . . . . . . . . . . . z#@#A#B#A#C#D#E#F#G#H#I#J#K#L#M#N#O#P#Q#R#S#T#U#V#W#X#Y#Z#`# $.$. . . . . . . . . . . . . .     ",
"    . . . . . . . . . . . . . . . . +$@$#$$$%$&$*$=$-$;$>$,$'$)$!$~${$]$^$/$($_$:$<$[$}$|$z#. 1$. . . . . . . . . . . . . .     ",
"    . . . . . . . . . + + + + . . . 2$3$4$E#5$6$7$=$8$,$9$0$a$b$c$d$e$f$g$h$i$j$k$l$m$n$o$p$. . . . . . . . . . . . . . .       ",
"      . . . . + + . . . . . . . . . q$r$s$t$u$v$w$x$y$t$z$A$B$C$D$E$F$G$H$I$J$K$L$M$N$O$P$Q$. . . + + . . + . . . . . . .       ",
"      . . . . . . . . . . . . . . . R$S$T$t$=$U$V$W$X$9$Y$Z$`$ %.%.%+%+%@%#%$%%%&%*%=%-%;%>%. . . . . . . . . . . . . . .       ",
"      . . . . . . . . . . . . . . . . ,%'%)%!%t$t$~%n${%]%^%/%(%_%:%<%[%}%|%|%1%2%3%4%;%. . . . . . . . . . . . . . . . .       ",
"      . . . . . . . . . . . . . . . . . . 5%6%7%8%9%0%a%(%b%c%d%e%e%f%g%h%i%j%k%l%m%. . . . . . . . . . . . . . . . . . .       ",
"      . . . . . . . . . . . . . . . . . . n%o%p%q%r%s%t%u%v%w%x%y%y%z%z%A%B%C%D%-%;%. . . + + . . . . . . . . . . . . . .       ",
"      . . . . . . . . . . . . . . . . . . . . w.E%F%G%H%I%J%K%L%M%M%N%N%O%P%4%Q%R%. . . . + + + . . . . . . . . . . . . .       ",
"      . . . . . . . + . . + + . . . . . . . . >%q$S%T%U%V%W%X%X%Y%Y%Y%Z%`% &.&+&@&. . . . . . . . . . . . . . . + . . . .       ",
"      . . . . . . . . . . . + . . . . . . . . . . . +$ &#&#&#& &=+=++$>%@&. . . . . . . . . . . . . . . . . . . . + . . .       ",
"    . . . . . . . . . . . . . . . . . . . . . . . . $&%&z#z#$ z#=++$>%'%&&1$. . . . . . . . . . . . . . . . . . . . . . .       ",
"    . . . . + . . . . . . . . . . . . . . . . + . . . + + . . . . . . . . . . . . . . . + . . . . + . . . . . . . . . . .       ",
"    . . . . . . . . . . . + . . . . . . . . . + + . . . . . . + + + + . . . . . . . . . . + . . . . . . . + + + + . . . .       ",
"    . . . . . . . . . . . . . . . . . . . . . . . . . . . . . . . . . . . . . . . . . . . . . . . . . . . . . . . . . . .       ",
"    . . . + + + . . . . . . . . . . + . . . . . . . + + + . . . . . . . . . . + . . . . . . . + + + + . . . . . . . . . . .     ",
"    . . . . . . . + . . . . . . . . + . . . . . . . . . . . . . . . . . . . . + + . . . . . . . . . . . . . . . . . . . . .     ",
"    . . . . . . . . . + + + + . . . . . . . . . . . . . . . . . + + + + . . . . . . . . . . . . . . . . . + + + + . . . .       ",
"      . . . . . . . . + + . . . . . . . . . . . . . . . . . . . . + + . . . . . . . . . . . . . . . . . . . + + . . . . .       ",
"      . . . . . . . . . . . . . . . . . . . . . . . . . . . . . . . . . . . . . . . . . . . . . . . . . . . . . . . . . .       ",
"      . . . . . . . . . + . . . . . . . . . . . . . . . . . . . . + + . . . . . . . . . . . . . . . . . . . . + . . . . .       ",
"    . . . . . . . . . . . . . . . + . . . . . . + . . . . . . . . . . . . . . . . . . . . + . . . . . . . . . . . . . . .       ",
"    . . . . . . . . . . . . . . . + + . . . . + + . . . . . . . . . . . . . . + + . . . . + + . . . . . . . . . . . . . . .     ",
"    . . . . . . . . . + + + + . . . . . . . . . . . . . . . . . . + + + . . . . . . . . . . . . . . . . . . + + + . . . .       ",
"      . . . . . . . . + + + . . . . . . . . . . . . . . . . . . . + + . . . . . . . . . . . . . . . . . . . + + + . . . .       ",
"      . . . . . . .     . . . . . . . . . . . . . . . . . . .     . . . . . . . . . . . . . . . . . . . .     . . . . .         ",
"          . . .           . .       . .               . .           . .       . .               . . .         . .               ",
"                                                                                                                                "};
